<?xml version="1.0" standalone="no"?><!DOCTYPE svg PUBLIC "-//W3C//DTD SVG 1.1//EN" "http://www.w3.org/Graphics/SVG/1.1/DTD/svg11.dtd"><svg t="1633508869034" class="icon" viewBox="0 0 1024 1024" version="1.1" xmlns="http://www.w3.org/2000/svg" p-id="3964" xmlns:xlink="http://www.w3.org/1999/xlink" width="200" height="200"><defs><style type="text/css"></style></defs><path d="M1024 156.514L0 153.822l188.52 187.374-49.272 338.52 210.626-80.504 170.57 270.966L1024 156.514zM264.49 419.822L139.248 679.716l103.034-324.986L1024 156.514 264.49 419.822z" fill="#85D3FD" p-id="3965"></path><path d="M1024 156.514L246 418.116l-106.752 261.6 210.626-80.504 170.57 270.966L1024 156.514z" fill="#22B8F9" p-id="3966"></path><path d="M246 418.116l-106.752 261.6L188.52 341.194 1024 156.514z" fill="#0082FF" p-id="3967"></path><path d="M349.874 599.212L246 418.116l-106.752 261.6z" fill="#00317E" p-id="3968"></path><path d="M520.666 331.01v538.854L1024 156.514z" fill="#85D3FD" p-id="3969"></path><path d="M520.666 284.142L1024 156.514l-503.334-1.324z" fill="#22B8F9" p-id="3970"></path><path d="M520.666 325.76l-0.222 544.418L1024 156.514z" fill="#0082FF" p-id="3971"></path><path d="M520.666 267.774v57.986L1024 156.514z" fill="#00317E" p-id="3972"></path><path d="M766.79 340.76c-119.596 0-216.894 97.298-216.894 216.896 0 119.596 97.298 216.894 216.894 216.894 119.598 0 216.896-97.298 216.896-216.894 0-119.598-97.3-216.896-216.896-216.896z" fill="#FFDA2D" p-id="3973"></path><path d="M766.79 340.76v433.79c119.598 0 216.896-97.298 216.896-216.894 0-119.598-97.3-216.896-216.896-216.896z" fill="#FDBF00" p-id="3974"></path><path d="M804.27 472.81v173.226h-58.402v-129.178h-29.696v-44.048h88.098z" fill="#FC1D5A" p-id="3975"></path><path d="M766.79 472.81h37.48v173.226h-37.48z" fill="#DD0057" p-id="3976"></path></svg>